<svg xmlns="http://www.w3.org/2000/svg" width="1024" height="1024" viewBox="0 0 1024 1024">
  <defs>
    <linearGradient id="bg" x1="0" y1="0" x2="0" y2="1"><stop offset="0" stop-color="#2A2438"/><stop offset="1" stop-color="#1C1830"/></linearGradient>
    <radialGradient id="glow" cx="0.5" cy="0.54" r="0.5"><stop offset="0" stop-color="#5A4A6B" stop-opacity="0.95"/><stop offset="0.45" stop-color="#473A5C" stop-opacity="0.55"/><stop offset="1" stop-color="#473A5C" stop-opacity="0"/></radialGradient>
    <linearGradient id="spark" x1="0" y1="0" x2="0" y2="1"><stop offset="0" stop-color="#FFC07A"/><stop offset="1" stop-color="#FF9E7A"/></linearGradient>
    <radialGradient id="core" cx="0.5" cy="0.5" r="0.5"><stop offset="0" stop-color="#FFE3B0" stop-opacity="0.85"/><stop offset="0.6" stop-color="#FFE3B0" stop-opacity="0"/></radialGradient>
  </defs>
  <rect width="1024" height="1024" fill="url(#bg)"/>
  <ellipse cx="512" cy="553" rx="430" ry="430" fill="url(#glow)"/>
  <path d="M 722.00 512.00 L 721.78 512.00 L 721.14 511.97 L 720.06 511.88 L 718.57 511.72 L 716.66 511.46 L 714.34 511.07 L 711.63 510.54 L 708.53 509.83 L 705.07 508.92 L 701.26 507.80 L 697.11 506.46 L 692.65 504.86 L 687.90 503.00 L 682.87 500.86 L 677.60 498.44 L 672.11 495.72 L 666.41 492.69 L 660.55 489.36 L 654.53 485.71 L 648.40 481.75 L 642.17 477.48 L 635.88 472.90 L 629.54 468.03 L 623.20 462.86 L 616.86 457.40 L 610.57 451.68 L 604.33 445.71 L 598.19 439.50 L 592.15 433.07 L 586.25 426.44 L 580.49 419.64 L 574.91 412.68 L 569.52 405.60 L 564.34 398.41 L 559.38 391.16 L 554.65 383.86 L 550.16 376.54 L 545.93 369.25 L 541.96 361.99 L 538.25 354.82 L 534.81 347.75 L 531.65 340.82 L 528.76 334.06 L 526.13 327.50 L 523.77 321.16 L 521.67 315.09 L 519.81 309.30 L 518.20 303.82 L 516.81 298.68 L 515.64 293.90 L 514.67 289.51 L 513.89 285.52 L 513.27 281.95 L 512.80 278.83 L 512.47 276.16 L 512.24 273.96 L 512.10 272.23 L 512.03 270.99 L 512.00 270.25 L 512.00 270.00 L 512.00 270.25 L 511.97 270.99 L 511.90 272.23 L 511.76 273.96 L 511.53 276.16 L 511.20 278.83 L 510.73 281.95 L 510.11 285.52 L 509.33 289.51 L 508.36 293.90 L 507.19 298.68 L 505.80 303.82 L 504.19 309.30 L 502.33 315.09 L 500.23 321.16 L 497.87 327.50 L 495.24 334.06 L 492.35 340.82 L 489.19 347.75 L 485.75 354.82 L 482.04 361.99 L 478.07 369.25 L 473.84 376.54 L 469.35 383.86 L 464.62 391.16 L 459.66 398.41 L 454.48 405.60 L 449.09 412.68 L 443.51 419.64 L 437.75 426.44 L 431.85 433.07 L 425.81 439.50 L 419.67 445.71 L 413.43 451.68 L 407.14 457.40 L 400.80 462.86 L 394.46 468.03 L 388.12 472.90 L 381.83 477.48 L 375.60 481.75 L 369.47 485.71 L 363.45 489.36 L 357.59 492.69 L 351.89 495.72 L 346.40 498.44 L 341.13 500.86 L 336.10 503.00 L 331.35 504.86 L 326.89 506.46 L 322.74 507.80 L 318.93 508.92 L 315.47 509.83 L 312.37 510.54 L 309.66 511.07 L 307.34 511.46 L 305.43 511.72 L 303.94 511.88 L 302.86 511.97 L 302.22 512.00 L 302.00 512.00 L 302.22 512.00 L 302.86 512.03 L 303.94 512.12 L 305.43 512.28 L 307.34 512.54 L 309.66 512.93 L 312.37 513.46 L 315.47 514.17 L 318.93 515.08 L 322.74 516.20 L 326.89 517.54 L 331.35 519.14 L 336.10 521.00 L 341.13 523.14 L 346.40 525.56 L 351.89 528.28 L 357.59 531.31 L 363.45 534.64 L 369.47 538.29 L 375.60 542.25 L 381.83 546.52 L 388.12 551.10 L 394.46 555.97 L 400.80 561.14 L 407.14 566.60 L 413.43 572.32 L 419.67 578.29 L 425.81 584.50 L 431.85 590.93 L 437.75 597.56 L 443.51 604.36 L 449.09 611.32 L 454.48 618.40 L 459.66 625.59 L 464.62 632.84 L 469.35 640.14 L 473.84 647.46 L 478.07 654.75 L 482.04 662.01 L 485.75 669.18 L 489.19 676.25 L 492.35 683.18 L 495.24 689.94 L 497.87 696.50 L 500.23 702.84 L 502.33 708.91 L 504.19 714.70 L 505.80 720.18 L 507.19 725.32 L 508.36 730.10 L 509.33 734.49 L 510.11 738.48 L 510.73 742.05 L 511.20 745.17 L 511.53 747.84 L 511.76 750.04 L 511.90 751.77 L 511.97 753.01 L 512.00 753.75 L 512.00 754.00 L 512.00 753.75 L 512.03 753.01 L 512.10 751.77 L 512.24 750.04 L 512.47 747.84 L 512.80 745.17 L 513.27 742.05 L 513.89 738.48 L 514.67 734.49 L 515.64 730.10 L 516.81 725.32 L 518.20 720.18 L 519.81 714.70 L 521.67 708.91 L 523.77 702.84 L 526.13 696.50 L 528.76 689.94 L 531.65 683.18 L 534.81 676.25 L 538.25 669.18 L 541.96 662.01 L 545.93 654.75 L 550.16 647.46 L 554.65 640.14 L 559.38 632.84 L 564.34 625.59 L 569.52 618.40 L 574.91 611.32 L 580.49 604.36 L 586.25 597.56 L 592.15 590.93 L 598.19 584.50 L 604.33 578.29 L 610.57 572.32 L 616.86 566.60 L 623.20 561.14 L 629.54 555.97 L 635.88 551.10 L 642.17 546.52 L 648.40 542.25 L 654.53 538.29 L 660.55 534.64 L 666.41 531.31 L 672.11 528.28 L 677.60 525.56 L 682.87 523.14 L 687.90 521.00 L 692.65 519.14 L 697.11 517.54 L 701.26 516.20 L 705.07 515.08 L 708.53 514.17 L 711.63 513.46 L 714.34 512.93 L 716.66 512.54 L 718.57 512.28 L 720.06 512.12 L 721.14 512.03 L 721.78 512.00 Z" fill="url(#spark)"/>
  <circle cx="512" cy="512" r="120" fill="url(#core)"/>
</svg>
